<svg width="160" height="160" viewBox="0 0 160 160" fill="none" xmlns="http://www.w3.org/2000/svg">
  <defs>
    <linearGradient id="markGradient" x1="36" y1="30" x2="124" y2="130" gradientUnits="userSpaceOnUse">
      <stop offset="0" stop-color="#B8FF4A"/>
      <stop offset="0.42" stop-color="#39FF14"/>
      <stop offset="1" stop-color="#00B83A"/>
    </linearGradient>
    <linearGradient id="markHighlight" x1="84" y1="32" x2="108" y2="70" gradientUnits="userSpaceOnUse">
      <stop offset="0" stop-color="#E9FFC8"/>
      <stop offset="1" stop-color="#65FF1F" stop-opacity="0"/>
    </linearGradient>
    <filter id="greenGlow" x="-35" y="-35" width="230" height="230" filterUnits="userSpaceOnUse" color-interpolation-filters="sRGB">
      <feGaussianBlur stdDeviation="7" result="blur"/>
      <feColorMatrix in="blur" type="matrix" values="0 0 0 0 0.17 0 0 0 0 1 0 0 0 0 0.03 0 0 0 0.45 0"/>
      <feMerge>
        <feMergeNode/>
        <feMergeNode in="SourceGraphic"/>
      </feMerge>
    </filter>
  </defs>
  <rect width="160" height="160" fill="transparent"/>
  <path d="M118.4 108.5C108.9 121.2 94 128.9 77.3 128.9C48.5 128.9 25.1 105.7 25.1 77.1C25.1 48.5 48.5 25.3 77.3 25.3C94 25.3 109.2 33.2 118.7 46.3L100.5 59.7C95.1 52.6 86.8 48.4 77.3 48.4C61.3 48.4 48.3 61.3 48.3 77.1C48.3 92.9 61.3 105.8 77.3 105.8C86.7 105.8 94.9 101.7 100.3 94.8L118.4 108.5Z" fill="url(#markGradient)" filter="url(#greenGlow)"/>
  <path d="M77.3 25.3C89.7 25.3 101.2 29.7 110.2 37L97.5 55.7C92.3 51 85.2 48.4 77.3 48.4V25.3Z" fill="url(#markHighlight)" opacity="0.8"/>
  <path d="M49.6 78C49.6 94 62.2 106.7 77.5 106.7C86.5 106.7 94.7 102.6 100.2 95.6L112.2 104.7C104.2 116.1 91.5 123.2 77.2 123.2C51.9 123.2 31.2 102.8 31.2 77.3C31.2 52 51.9 31.4 77.2 31.4V47.2C61.8 47.2 49.6 59.8 49.6 78Z" fill="#D7FF79" opacity="0.18"/>
</svg>
